<svg xmlns="http://www.w3.org/2000/svg" width="808" height="155" style="width:808px;height:155px;background:0 0;fill:none"><svg xmlns="http://www.w3.org/2000/svg" class="role-diagram-draw-area"><g class="shapes-region" style="stroke:#000;fill:none"><g class="arrow-line"><path d="M70,13 L70,143" class="connection real" style="stroke:#000;stroke-width:1;fill:none"/></g><g class="composite-shape"><path d="M50,63 L90,63 L90,93 L50,93 Z" class="real" style="stroke-width:1;stroke:#000;fill:#fff"/></g><g class="arrow-line"><path d="M70,46 L70,53" class="connection real" style="stroke:#000;stroke-width:1;fill:none"/><g fill="#000" stroke="none" style="stroke:none;fill:#000;stroke-width:1"><path d="M8.93,-4.29 L0,0 L8.93,4.29 Z" transform="matrix(6.123233995736766e-17,1,-1,6.123233995736766e-17,70,43)"/></g></g><g class="arrow-line"><path d="M70,106 L70,113" class="connection real" style="stroke:#000;stroke-width:1;fill:none"/><g fill="#000" stroke="none" style="stroke:none;fill:#000;stroke-width:1"><path d="M8.93,-4.29 L0,0 L8.93,4.29 Z" transform="matrix(6.123233995736766e-17,1,-1,6.123233995736766e-17,70,103)"/></g></g><g class="composite-shape"><path d="M160,63 L200,63 L200,93 L160,93 Z" class="real" style="stroke-width:1;stroke:#000;fill:#fff"/></g><g class="arrow-line"><path d="M180,43.32 L180,63.49" class="connection real" style="stroke:#000;stroke-width:1;fill:none"/></g><g class="arrow-line"><path d="M220,43.4 L220,143" class="connection real" style="stroke:#000;stroke-width:1;fill:none"/></g><g class="composite-shape"><path d="M180,42.69 C180.17,31.79 189.06,23 200,23 C211.05,23 220,31.95 220,43 C220,43.11 220,43.21 220,43.32 L200,43 Z" class="real" style="stroke-width:1;stroke:none;fill:none"/><path d="M180,42.69 C180.17,31.79 189.06,23 200,23 C211.05,23 220,31.95 220,43 C220,43.11 220,43.21 220,43.32" class="real" style="stroke-width:1;stroke:#000;fill:none"/></g><g class="arrow-line"><path d="M180,42.83 L180,50.49" class="connection real" style="stroke:#000;stroke-width:1;fill:none"/><g fill="#000" stroke="none" style="stroke:none;fill:#000;stroke-width:1"><path d="M8.93,-4.29 L0,0 L8.93,4.29 Z" transform="matrix(0.0003490658433098913,-0.9999999390765166,0.9999999390765166,0.0003490658433098913,179.99678305545564,53.49216823126926)"/></g></g><g class="arrow-line"><path d="M220,46.32 L220,53.49" class="connection real" style="stroke:#000;stroke-width:1;fill:none"/><g fill="#000" stroke="none" style="stroke:none;fill:#000;stroke-width:1"><path d="M8.93,-4.29 L0,0 L8.93,4.29 Z" transform="matrix(6.123233995736766e-17,1,-1,6.123233995736766e-17,219.99752874137664,43.31763738295649)"/></g></g><g class="arrow-line"><path d="M180,113.26 L180,93.09" class="connection real" style="stroke:#000;stroke-width:1;fill:none"/></g><g class="arrow-line"><path d="M140,113.17 L140,13" class="connection real" style="stroke:#000;stroke-width:1;fill:none"/></g><g class="composite-shape"><path d="M180,113.75 C179.9,124.72 170.98,133.58 160,133.58 C148.95,133.58 140,124.63 140,113.58 C140,113.47 140,113.37 140,113.26 L160,113.58 Z" class="real" style="stroke-width:1;stroke:none;fill:none"/><path d="M180,113.75 C179.9,124.72 170.98,133.58 160,133.58 C148.95,133.58 140,124.63 140,113.58 C140,113.47 140,113.37 140,113.26" class="real" style="stroke-width:1;stroke:#000;fill:none"/></g><g class="arrow-line"><path d="M180,110.26 L180,103.09" class="connection real" style="stroke:#000;stroke-width:1;fill:none"/><g fill="#000" stroke="none" style="stroke:none;fill:#000;stroke-width:1"><path d="M8.93,-4.29 L0,0 L8.93,4.29 Z" transform="matrix(-1.8369701987210297e-16,-1,1,-1.8369701987210297e-16,179.99925431407888,113.26179627246918)"/></g></g><g class="arrow-line"><path d="M140,113.26 L140,106.09" class="connection real" style="stroke:#000;stroke-width:1;fill:none"/><g fill="#000" stroke="none" style="stroke:none;fill:#000;stroke-width:1"><path d="M8.93,-4.29 L0,0 L8.93,4.29 Z" transform="matrix(3.061616997868383e-16,1,-1,3.061616997868383e-16,139.9999999999999,103.08726542415627)"/></g></g><g class="arrow-line"><path d="M290,13 L290,143" class="connection real" style="stroke:#000;stroke-width:1;fill:none"/></g><g class="composite-shape"><path d="M270,63 L310,63 L310,93 L270,93 Z" class="real" style="stroke-width:1;stroke:#000;fill:#fff"/></g><g class="arrow-line"><path d="M290,46 L290,53" class="connection real" style="stroke:#000;stroke-width:1;fill:none"/><g fill="#000" stroke="none" style="stroke:none;fill:#000;stroke-width:1"><path d="M8.93,-4.29 L0,0 L8.93,4.29 Z" transform="matrix(6.123233995736766e-17,1,-1,6.123233995736766e-17,290,43)"/></g></g><g class="arrow-line"><path d="M290,106 L290,113" class="connection real" style="stroke:#000;stroke-width:1;fill:none"/><g fill="#000" stroke="none" style="stroke:none;fill:#000;stroke-width:1"><path d="M8.93,-4.29 L0,0 L8.93,4.29 Z" transform="matrix(6.123233995736766e-17,1,-1,6.123233995736766e-17,290,103)"/></g></g><g class="composite-shape"><path d="M380,63 L420,63 L420,93 L380,93 Z" class="real" style="stroke-width:1;stroke:#000;fill:#fff"/></g><g class="arrow-line"><path d="M440,113.26 L440,13" class="connection real" style="stroke:#000;stroke-width:1;fill:none"/></g><g class="arrow-line"><path d="M400,113.17 L400,93" class="connection real" style="stroke:#000;stroke-width:1;fill:none"/></g><g class="composite-shape"><path d="M440,113.75 C439.9,124.72 430.98,133.58 420,133.58 C408.95,133.58 400,124.63 400,113.58 C400,113.47 400,113.37 400,113.26 L420,113.58 Z" class="real" style="stroke-width:1;stroke:none;fill:none"/><path d="M440,113.75 C439.9,124.72 430.98,133.58 420,133.58 C408.95,133.58 400,124.63 400,113.58 C400,113.47 400,113.37 400,113.26" class="real" style="stroke-width:1;stroke:#000;fill:none"/></g><g class="arrow-line"><path d="M440,113.26 L440,106.09" class="connection real" style="stroke:#000;stroke-width:1;fill:none"/><g fill="#000" stroke="none" style="stroke:none;fill:#000;stroke-width:1"><path d="M8.93,-4.29 L0,0 L8.93,4.29 Z" transform="matrix(3.061616997868383e-16,1,-1,3.061616997868383e-16,439.9999999999999,103.08726542415627)"/></g></g><g class="arrow-line"><path d="M400,110.26 L400,103.09" class="connection real" style="stroke:#000;stroke-width:1;fill:none"/><g fill="#000" stroke="none" style="stroke:none;fill:#000;stroke-width:1"><path d="M8.93,-4.29 L0,0 L8.93,4.29 Z" transform="matrix(-1.8369701987210297e-16,-1,1,-1.8369701987210297e-16,399.99925431407877,113.26179627246898)"/></g></g><g class="arrow-line"><path d="M360,43.4 L360,143" class="connection real" style="stroke:#000;stroke-width:1;fill:none"/></g><g class="arrow-line"><path d="M400,43.4 L400,63.58" class="connection real" style="stroke:#000;stroke-width:1;fill:none"/></g><g class="composite-shape"><path d="M360,42.69 C360.17,31.79 369.06,23 380,23 C391.05,23 400,31.95 400,43 C400,43.11 400,43.21 400,43.32 L380,43 Z" class="real" style="stroke-width:1;stroke:none;fill:none"/><path d="M360,42.69 C360.17,31.79 369.06,23 380,23 C391.05,23 400,31.95 400,43 C400,43.11 400,43.21 400,43.32" class="real" style="stroke-width:1;stroke:#000;fill:none"/></g><g class="arrow-line"><path d="M360,45.83 L360,53.49" class="connection real" style="stroke:#000;stroke-width:1;fill:none"/><g fill="#000" stroke="none" style="stroke:none;fill:#000;stroke-width:1"><path d="M8.93,-4.29 L0,0 L8.93,4.29 Z" transform="matrix(-0.00034906584331001375,0.9999999390765166,-0.9999999390765166,-0.00034906584331001375,360.00074568592095,42.82546915168723)"/></g></g><g class="arrow-line"><path d="M400,43.32 L400,50.49" class="connection real" style="stroke:#000;stroke-width:1;fill:none"/><g fill="#000" stroke="none" style="stroke:none;fill:#000;stroke-width:1"><path d="M8.93,-4.29 L0,0 L8.93,4.29 Z" transform="matrix(-1.8369701987210297e-16,-1,1,-1.8369701987210297e-16,399.99678305545564,53.49216823126926)"/></g></g><g class="composite-shape"><path d="M590,83 L690,83 L690,113 L590,113 Z" class="real" style="stroke-width:1;stroke:#000;fill:#fff"/></g><g class="arrow-line"><path d="M610,53 L610,70" class="connection real" style="stroke:#000;stroke-width:1;fill:none"/><g fill="#000" stroke="none" style="stroke:none;fill:#000;stroke-width:1"><path d="M8.93,-4.29 L0,0 L8.93,4.29 Z" transform="matrix(-1.8369701987210297e-16,-1,1,-1.8369701987210297e-16,610,73)"/></g></g><g class="arrow-line"><path d="M620,113 L620,130" class="connection real" style="stroke:#000;stroke-width:1;fill:none"/><g fill="#000" stroke="none" style="stroke:none;fill:#000;stroke-width:1"><path d="M8.93,-4.29 L0,0 L8.93,4.29 Z" transform="matrix(-1.8369701987210297e-16,-1,1,-1.8369701987210297e-16,620,133)"/></g></g><g class="arrow-line"><path d="M660,113 L660,130" class="connection real" style="stroke:#000;stroke-width:1;fill:none"/><g fill="#000" stroke="none" style="stroke:none;fill:#000;stroke-width:1"><path d="M8.93,-4.29 L0,0 L8.93,4.29 Z" transform="matrix(-1.8369701987210297e-16,-1,1,-1.8369701987210297e-16,660,133)"/></g></g><g class="arrow-line"><path d="M610,53 L610,83" class="connection real" style="stroke:#000;stroke-width:1;fill:none"/></g><g class="arrow-line"><path d="M620,113 L620,143" class="connection real" style="stroke:#000;stroke-width:1;fill:none"/></g><g class="arrow-line"><path d="M660,113 L660,143" class="connection real" style="stroke:#000;stroke-width:1;fill:none"/></g><g class="arrow-line"><path d="M670,63.32 L670,83.49" class="connection real" style="stroke:#000;stroke-width:1;fill:none"/></g><g class="arrow-line"><path d="M710,63.4 L710,143" class="connection real" style="stroke:#000;stroke-width:1;fill:none"/></g><g class="composite-shape"><path d="M670,62.69 C670.17,51.79 679.06,43 690,43 C701.05,43 710,51.95 710,63 C710,63.11 710,63.21 710,63.32 L690,63 Z" class="real" style="stroke-width:1;stroke:none;fill:none"/><path d="M670,62.69 C670.17,51.79 679.06,43 690,43 C701.05,43 710,51.95 710,63 C710,63.11 710,63.21 710,63.32" class="real" style="stroke-width:1;stroke:#000;fill:none"/></g><g class="arrow-line"><path d="M670,62.83 L670,70.49" class="connection real" style="stroke:#000;stroke-width:1;fill:none"/><g fill="#000" stroke="none" style="stroke:none;fill:#000;stroke-width:1"><path d="M8.93,-4.29 L0,0 L8.93,4.29 Z" transform="matrix(0.0003490658433098913,-0.9999999390765166,0.9999999390765166,0.0003490658433098913,669.9967830554556,73.49216823126926)"/></g></g><g class="arrow-line"><path d="M710,126.32 L710,133.49" class="connection real" style="stroke:#000;stroke-width:1;fill:none"/><g fill="#000" stroke="none" style="stroke:none;fill:#000;stroke-width:1"><path d="M8.93,-4.29 L0,0 L8.93,4.29 Z" transform="matrix(6.123233995736766e-17,1,-1,6.123233995736766e-17,709.9975287413766,123.31763738295649)"/></g></g><g class="arrow-line"><path d="M640,53.32 L640,83" class="connection real" style="stroke:#000;stroke-width:1;fill:none"/></g><g class="arrow-line"><path d="M730,53.13 L730,142.73" class="connection real" style="stroke:#000;stroke-width:1;fill:none"/></g><g class="composite-shape"><path d="M640.03,54.1 C640.01,53.73 640,53.37 640,53 C640,36.43 660.15,23 685,23 C709.85,23 730,36.43 730,53 C730,53.04 730,53.09 730,53.13 L685,53 Z" class="real" style="stroke-width:1;stroke:none;fill:none"/><path d="M640.03,54.1 C640.01,53.73 640,53.37 640,53 C640,36.43 660.15,23 685,23 C709.85,23 730,36.43 730,53 C730,53.04 730,53.09 730,53.13" class="real" style="stroke-width:1;stroke:#000;fill:none"/></g><g class="arrow-line"><path d="M640,62.83 L640,70.49" class="connection real" style="stroke:#000;stroke-width:1;fill:none"/><g fill="#000" stroke="none" style="stroke:none;fill:#000;stroke-width:1"><path d="M8.93,-4.29 L0,0 L8.93,4.29 Z" transform="matrix(0.0003490658433098913,-0.9999999390765166,0.9999999390765166,0.0003490658433098913,639.9967830554556,73.49216823126926)"/></g></g><g class="arrow-line"><path d="M730,126.32 L730,133.49" class="connection real" style="stroke:#000;stroke-width:1;fill:none"/><g fill="#000" stroke="none" style="stroke:none;fill:#000;stroke-width:1"><path d="M8.93,-4.29 L0,0 L8.93,4.29 Z" transform="matrix(6.123233995736766e-17,1,-1,6.123233995736766e-17,729.9975287413766,123.31763738295649)"/></g></g><g class="composite-shape"><path d="M610.06,54.71 C610.02,54.14 610,53.57 610,53 C610,30.91 641.34,13 680,13 C718.66,13 750,30.91 750,53 C750,53.07 750,53.14 750,53.21 L680,53 Z" class="real" style="stroke-width:1;stroke:none;fill:none"/><path d="M610.06,54.71 C610.02,54.14 610,53.57 610,53 C610,30.91 641.34,13 680,13 C718.66,13 750,30.91 750,53 C750,53.07 750,53.14 750,53.21" class="real" style="stroke-width:1;stroke:#000;fill:none"/></g><g class="arrow-line"><path d="M750,53.13 L750,142.73" class="connection real" style="stroke:#000;stroke-width:1;fill:none"/></g><g class="arrow-line"><path d="M750,126.32 L750,133.49" class="connection real" style="stroke:#000;stroke-width:1;fill:none"/><g fill="#000" stroke="none" style="stroke:none;fill:#000;stroke-width:1"><path d="M8.93,-4.29 L0,0 L8.93,4.29 Z" transform="matrix(6.123233995736766e-17,1,-1,6.123233995736766e-17,749.9975287413766,123.31763738295649)"/></g></g></g></svg><svg xmlns="http://www.w3.org/2000/svg" width="806" height="153" style="width:806px;height:153px;font-family:Asana-Math,Asana;background:0 0"><g><g><g><g><g><g style="transform:matrix(1,0,0,1,61.1875,79.4390625)"><path fill="#000" stroke="#000" stroke-width="8" d="M623 585L563 585L345 105L125 585L65 585L336 0L354 0Z" style="transform:matrix(.0119,0,0,-.0119,0,0)"/></g></g></g></g><g style="transform:matrix(1,0,0,1,70.390625,85.4609375)"><path fill="#000" stroke="#000" stroke-width="8" d="M345 437L329 437L350 549C366 635 394 673 440 673C470 673 497 658 512 634L522 638C527 654 537 685 545 705L550 720C534 727 503 733 480 733C469 733 453 730 445 726C421 715 339 654 316 630C294 608 282 578 271 521L256 442C215 422 195 414 170 405L165 383L246 383L237 327C207 132 170 -54 148 -123C130 -182 100 -213 64 -213C41 -213 30 -206 12 -184L-2 -188C-6 -211 -20 -259 -25 -268C-16 -273 -1 -276 10 -276C51 -276 105 -245 144 -198C215 -114 235 -18 319 383L423 383C427 402 434 425 440 439L436 446C407 439 408 437 345 437Z" style="transform:matrix(.017,0,0,-.017,0,0)"/></g></g></g><g><g><g style="transform:matrix(1,0,0,1,174.78125,85)"><path fill="#000" stroke="#000" stroke-width="8" d="M345 437L329 437L350 549C366 635 394 673 440 673C470 673 497 658 512 634L522 638C527 654 537 685 545 705L550 720C534 727 503 733 480 733C469 733 453 730 445 726C421 715 339 654 316 630C294 608 282 578 271 521L256 442C215 422 195 414 170 405L165 383L246 383L237 327C207 132 170 -54 148 -123C130 -182 100 -213 64 -213C41 -213 30 -206 12 -184L-2 -188C-6 -211 -20 -259 -25 -268C-16 -273 -1 -276 10 -276C51 -276 105 -245 144 -198C215 -114 235 -18 319 383L423 383C427 402 434 425 440 439L436 446C407 439 408 437 345 437Z" style="transform:matrix(.017,0,0,-.017,0,0)"/></g></g></g><g><g><g style="transform:matrix(1,0,0,1,106.7265625,80.5)"><path fill="#000" stroke="#000" stroke-width="8" d="M604 347L604 406L65 406L65 347ZM604 134L604 193L65 193L65 134Z" style="transform:matrix(.017,0,0,-.017,0,0)"/></g></g></g><g><g><g style="transform:matrix(1,0,0,1,280.21875,85.6640625)"><path fill="#000" stroke="#000" stroke-width="8" d="M345 437L329 437L350 549C366 635 394 673 440 673C470 673 497 658 512 634L522 638C527 654 537 685 545 705L550 720C534 727 503 733 480 733C469 733 453 730 445 726C421 715 339 654 316 630C294 608 282 578 271 521L256 442C215 422 195 414 170 405L165 383L246 383L237 327C207 132 170 -54 148 -123C130 -182 100 -213 64 -213C41 -213 30 -206 12 -184L-2 -188C-6 -211 -20 -259 -25 -268C-16 -273 -1 -276 10 -276C51 -276 105 -245 144 -198C215 -114 235 -18 319 383L423 383C427 402 434 425 440 439L436 446C407 439 408 437 345 437Z" style="transform:matrix(.017,0,0,-.017,0,0)"/></g><g><g><g><g style="transform:matrix(1,0,0,1,290.53125,79.2359375)"><path fill="#000" stroke="#000" stroke-width="8" d="M623 585L563 585L345 105L125 585L65 585L336 0L354 0Z" style="transform:matrix(.0119,0,0,-.0119,0,0)"/></g></g></g></g></g></g><g><g><g style="transform:matrix(1,0,0,1,394.78125,85)"><path fill="#000" stroke="#000" stroke-width="8" d="M345 437L329 437L350 549C366 635 394 673 440 673C470 673 497 658 512 634L522 638C527 654 537 685 545 705L550 720C534 727 503 733 480 733C469 733 453 730 445 726C421 715 339 654 316 630C294 608 282 578 271 521L256 442C215 422 195 414 170 405L165 383L246 383L237 327C207 132 170 -54 148 -123C130 -182 100 -213 64 -213C41 -213 30 -206 12 -184L-2 -188C-6 -211 -20 -259 -25 -268C-16 -273 -1 -276 10 -276C51 -276 105 -245 144 -198C215 -114 235 -18 319 383L423 383C427 402 434 425 440 439L436 446C407 439 408 437 345 437Z" style="transform:matrix(.017,0,0,-.017,0,0)"/></g></g></g><g><g><g style="transform:matrix(1,0,0,1,326.7265625,80.5)"><path fill="#000" stroke="#000" stroke-width="8" d="M604 347L604 406L65 406L65 347ZM604 134L604 193L65 193L65 134Z" style="transform:matrix(.017,0,0,-.017,0,0)"/></g></g></g><g><g><g style="transform:matrix(1,0,0,1,634.78125,105)"><path fill="#000" stroke="#000" stroke-width="8" d="M125 390L69 107C68 99 56 61 56 31C56 6 67 -9 86 -9C121 -9 156 11 234 74L265 99L255 117L210 86C181 66 161 56 150 56C141 56 136 64 136 76C136 102 150 183 179 328L192 390L299 390L310 440C272 436 238 434 200 434C216 528 227 577 245 631L234 646C214 634 187 622 156 610L131 440C87 419 61 408 43 403L41 390Z" style="transform:matrix(.017,0,0,-.017,0,0)"/></g></g></g></svg></svg>