<svg xmlns="http://www.w3.org/2000/svg" width="809.993" height="152.268" style="width:809.9934692382812px;height:152.26779174804688px;background:0 0;fill:none"><svg xmlns="http://www.w3.org/2000/svg" class="role-diagram-draw-area"><g class="shapes-region" style="stroke:#000;fill:none"><g class="composite-shape"><path d="M11,89.73 L11,74.73 C11,66.44 19.95,59.73 31,59.73 C42.05,59.73 51,66.44 51,74.73 L51,89.73 Z" class="real" style="stroke-width:1;stroke:#000;fill:none"/></g><g class="arrow-line"><path d="M21,89.73 L21,106.73" class="connection real" style="stroke:#000;stroke-width:1;fill:none"/><g fill="#000" stroke="none" style="stroke:none;fill:#000;stroke-width:1"><path d="M8.93,-4.29 L0,0 L8.93,4.29 Z" transform="matrix(-1.8369701987210297e-16,-1,1,-1.8369701987210297e-16,21,109.72569274902344)"/></g></g><g class="arrow-line"><path d="M60.99,54.86 L61,42.73" class="connection real" style="stroke:#000;stroke-width:1;fill:none"/><g fill="#000" stroke="none" style="stroke:none;fill:#000;stroke-width:1"><path d="M8.93,-4.29 L0,0 L8.93,4.29 Z" transform="matrix(-0.00034906584330888065,0.9999999390765166,-0.9999999390765166,-0.00034906584330888065,61.00000000000001,39.72569274902344)"/></g></g><g class="arrow-line"><path d="M31,29.73 L31,46.73" class="connection real" style="stroke:#000;stroke-width:1;fill:none"/><g fill="#000" stroke="none" style="stroke:none;fill:#000;stroke-width:1"><path d="M8.93,-4.29 L0,0 L8.93,4.29 Z" transform="matrix(-1.8369701987210297e-16,-1,1,-1.8369701987210297e-16,31,49.72569274902344)"/></g></g><g class="arrow-line"><path d="M31,39.73 L31,59.73" class="connection real" style="stroke:#000;stroke-width:1;fill:none"/></g><g class="arrow-line"><path d="M41,89.73 L41,99.73" class="connection real" style="stroke:#000;stroke-width:1;fill:none"/></g><g class="arrow-line"><path d="M21,99.73 L21,119.73" class="connection real" style="stroke:#000;stroke-width:1;fill:none"/></g><g class="composite-shape"><path d="M41,99.73 C40.99,99.87 40.99,100.01 40.99,100.16 C40.99,105.68 45.47,110.16 50.99,110.16 C56.51,110.16 60.99,105.68 60.99,100.16 C60.99,100.1 60.99,100.05 60.99,100 L50.99,100.16 Z" class="real" style="stroke-width:1;stroke:none;fill:none"/><path d="M41,99.73 C40.99,99.87 40.99,100.01 40.99,100.16 C40.99,105.68 45.47,110.16 50.99,110.16 C56.51,110.16 60.99,105.68 60.99,100.16 C60.99,100.1 60.99,100.05 60.99,100" class="real" style="stroke-width:1;stroke:#000;fill:none"/></g><g class="arrow-line"><path d="M61,29.73 L60.99,100" class="connection real" style="stroke:#000;stroke-width:1;fill:none"/></g><g class="arrow-line"><path d="M271,123.73 L271,130.73" class="connection real" style="stroke:#000;stroke-width:1;fill:none"/><g fill="#000" stroke="none" style="stroke:none;fill:#000;stroke-width:1"><path d="M8.93,-4.29 L0,0 L8.93,4.29 Z" transform="matrix(-1.8369701987210297e-16,-1,1,-1.8369701987210297e-16,271,133.72569274902344)"/></g></g><g class="arrow-line"><path d="M281,29.73 L281,22.73" class="connection real" style="stroke:#000;stroke-width:1;fill:none"/><g fill="#000" stroke="none" style="stroke:none;fill:#000;stroke-width:1"><path d="M8.93,-4.29 L0,0 L8.93,4.29 Z" transform="matrix(3.061616997868383e-16,1,-1,3.061616997868383e-16,281,19.725692749023438)"/></g></g><g class="arrow-line"><path d="M261,19.73 L261,36.73" class="connection real" style="stroke:#000;stroke-width:1;fill:none"/><g fill="#000" stroke="none" style="stroke:none;fill:#000;stroke-width:1"><path d="M8.93,-4.29 L0,0 L8.93,4.29 Z" transform="matrix(-1.8369701987210297e-16,-1,1,-1.8369701987210297e-16,261,39.72569274902344)"/></g></g><g class="arrow-line"><path d="M261,19.73 L261,89.73" class="connection real" style="stroke:#000;stroke-width:1;fill:none"/></g><g class="arrow-line"><path d="M271,119.73 L271,139.73" class="connection real" style="stroke:#000;stroke-width:1;fill:none"/></g><g class="arrow-line"><path d="M281,19.73 L281,89.73" class="connection real" style="stroke:#000;stroke-width:1;fill:none"/></g><g class="composite-shape"><path d="M251,89.73 L251,104.73 C251,113.01 259.95,119.73 271,119.73 C282.05,119.73 291,113.01 291,104.73 L291,89.73 Z" class="real" style="stroke-width:1;stroke:#000;fill:none"/></g><g class="composite-shape"><path d="M271,59.73 L271,43.48 L274.75,39.73 L291,39.73 L291,59.73 Z" class="real" style="stroke-width:1;stroke:#000;fill:#fff"/></g><g class="arrow-line"><path d="M281,59.73 L281,76.73" class="connection real" style="stroke:#000;stroke-width:1;fill:none"/><g fill="#000" stroke="none" style="stroke:none;fill:#000;stroke-width:1"><path d="M8.93,-4.29 L0,0 L8.93,4.29 Z" transform="matrix(-1.8369701987210297e-16,-1,1,-1.8369701987210297e-16,281,79.72569274902344)"/></g></g></g></svg><svg xmlns="http://www.w3.org/2000/svg" width="807.997" height="150.271" style="width:807.9969482421875px;height:150.27125549316406px;font-family:Asana-Math,Asana;background:0 0"><g><g><g style="transform:matrix(1,0,0,1,12.765869140625,134.65406799316406)"><path fill="#000" stroke="#000" stroke-width="8" d="M271 204L242 77C238 60 236 42 236 26C236 4 245 -9 260 -9C283 -9 324 17 406 85L399 106C375 86 346 59 324 59C315 59 309 68 309 82C309 87 309 90 310 93L402 472L392 481L359 463C318 478 301 482 274 482C246 482 226 477 199 464C137 433 104 403 79 354C35 265 4 145 4 67C4 23 19 -11 38 -11C75 -11 155 41 271 204ZM319 414C297 305 278 253 244 201C187 117 126 59 94 59C82 59 76 72 76 99C76 163 104 280 139 360C163 415 186 433 234 433C257 433 275 429 319 414Z" style="transform:matrix(.017,0,0,-.017,0,0)"/></g></g></g><g><g><g style="transform:matrix(1,0,0,1,72.77020263671875,66.65277099609375)"><path fill="#000" stroke="#000" stroke-width="8" d="M235 722L223 733C171 707 135 698 63 691L59 670L107 670C131 670 141 663 141 646C141 639 140 628 139 622L38 71C37 68 37 64 37 61C37 22 85 -11 140 -11C177 -11 228 8 271 39C367 107 433 244 433 376C433 414 424 453 412 468C405 477 392 482 377 482C353 482 323 474 295 460C244 433 211 403 149 324ZM322 424C348 424 361 401 361 352C361 288 340 202 310 137C277 68 237 36 183 36C137 36 112 59 112 101C112 135 127 276 208 361C241 395 293 424 322 424Z" style="transform:matrix(.017,0,0,-.017,0,0)"/></g></g></g><g><g><g style="transform:matrix(1,0,0,1,18.76629638671875,26.646270751953125)"><path fill="#000" stroke="#000" stroke-width="8" d="M342 330L365 330C373 395 380 432 389 458C365 473 330 482 293 482C248 483 175 463 118 400C64 352 25 241 25 136C25 40 67 -11 147 -11C201 -11 249 9 304 54L354 95L346 115L331 105C259 57 221 40 186 40C130 40 101 80 101 159C101 267 136 371 185 409C206 425 230 433 261 433C306 433 342 414 342 390Z" style="transform:matrix(.017,0,0,-.017,0,0)"/></g></g></g><g><g><g style="transform:matrix(1,0,0,1,25.764984130859375,81.6484375)"><path fill="#000" stroke="#000" stroke-width="8" d="M409 -15C458 -15 530 43 565 74L565 81C562 86 558 90 553 92C531 76 472 25 461 77C461 151 506 393 533 463L533 473C511 465 488 459 465 456L455 445C453 381 421 203 395 146C372 97 311 42 254 42C199 42 184 90 185 137C188 248 238 356 241 467C213 462 187 457 161 453C179 227 9 -91 53 -286C76 -285 109 -281 131 -273L131 -261C81 -173 121 -38 138 36L138 35C204 -77 344 37 395 104L395 101C387 65 354 -15 409 -15Z" style="transform:matrix(.017,0,0,-.017,0,0)"/></g></g></g><g><g><g style="transform:matrix(1,0,0,1,253.271484375,137.1497344970703)"><path fill="#000" stroke="#000" stroke-width="8" d="M271 204L242 77C238 60 236 42 236 26C236 4 245 -9 260 -9C283 -9 324 17 406 85L399 106C375 86 346 59 324 59C315 59 309 68 309 82C309 87 309 90 310 93L402 472L392 481L359 463C318 478 301 482 274 482C246 482 226 477 199 464C137 433 104 403 79 354C35 265 4 145 4 67C4 23 19 -11 38 -11C75 -11 155 41 271 204ZM319 414C297 305 278 253 244 201C187 117 126 59 94 59C82 59 76 72 76 99C76 163 104 280 139 360C163 415 186 433 234 433C257 433 275 429 319 414Z" style="transform:matrix(.017,0,0,-.017,0,0)"/></g></g></g><g><g><g style="transform:matrix(1,0,0,1,293.26715087890625,36.650604248046875)"><path fill="#000" stroke="#000" stroke-width="8" d="M235 722L223 733C171 707 135 698 63 691L59 670L107 670C131 670 141 663 141 646C141 639 140 628 139 622L38 71C37 68 37 64 37 61C37 22 85 -11 140 -11C177 -11 228 8 271 39C367 107 433 244 433 376C433 414 424 453 412 468C405 477 392 482 377 482C353 482 323 474 295 460C244 433 211 403 149 324ZM322 424C348 424 361 401 361 352C361 288 340 202 310 137C277 68 237 36 183 36C137 36 112 59 112 101C112 135 127 276 208 361C241 395 293 424 322 424Z" style="transform:matrix(.017,0,0,-.017,0,0)"/></g></g></g><g><g><g style="transform:matrix(1,0,0,1,243.26715087890625,36.650604248046875)"><path fill="#000" stroke="#000" stroke-width="8" d="M342 330L365 330C373 395 380 432 389 458C365 473 330 482 293 482C248 483 175 463 118 400C64 352 25 241 25 136C25 40 67 -11 147 -11C201 -11 249 9 304 54L354 95L346 115L331 105C259 57 221 40 186 40C130 40 101 80 101 159C101 267 136 371 185 409C206 425 230 433 261 433C306 433 342 414 342 390Z" style="transform:matrix(.017,0,0,-.017,0,0)"/></g></g></g><g><g><g><g><g><g style="transform:matrix(1,0,0,1,293.26715087890625,86.65061950683594)"><path fill="#000" stroke="#000" stroke-width="8" d="M235 722L223 733C171 707 135 698 63 691L59 670L107 670C131 670 141 663 141 646C141 639 140 628 139 622L38 71C37 68 37 64 37 61C37 22 85 -11 140 -11C177 -11 228 8 271 39C367 107 433 244 433 376C433 414 424 453 412 468C405 477 392 482 377 482C353 482 323 474 295 460C244 433 211 403 149 324ZM322 424C348 424 361 401 361 352C361 288 340 202 310 137C277 68 237 36 183 36C137 36 112 59 112 101C112 135 127 276 208 361C241 395 293 424 322 424Z" style="transform:matrix(.017,0,0,-.017,0,0)"/></g></g></g><svg style="overflow:hidden" width="7.856" height="3.993" x="293.267" y="67.654"><svg style="overflow:hidden" width="17.003" height="20.139" x="0" y="0"><g style="transform:matrix(1,0,0,1,0,17)"><path fill="#000" stroke="#000" stroke-width="8" d="M-877 790L1877 790L1877 850L-877 850Z" style="transform:matrix(.017,0,0,-.017,0,0)"/></g></svg></svg></g></g></g><g><g><g style="transform:matrix(1,0,0,1,265.771484375,111.65061950683594)"><path fill="#000" stroke="#000" stroke-width="8" d="M159 473C129 473 31 408 2 389L2 372L16 372C32 384 57 401 78 401C136 401 129 251 129 211C129 140 125 64 123 -7L133 -7C151 0 171 5 191 8C258 109 472 304 474 412C474 435 463 452 448 468C425 459 398 448 376 437L376 426C441 336 311 178 199 76L188 76L188 287C188 462 182 473 159 473Z" style="transform:matrix(.017,0,0,-.017,0,0)"/></g></g></g><g><g><g style="transform:matrix(1,0,0,1,100.08139038085938,81.14930725097656)"><path fill="#000" stroke="#000" stroke-width="8" d="M604 347L604 406L65 406L65 347ZM604 134L604 193L65 193L65 134Z" style="transform:matrix(.017,0,0,-.017,0,0)"/></g><g><g><g><g style="transform:matrix(1,0,0,1,124.1807861328125,96.80669250488282)"><path fill="#000" stroke="#000" stroke-width="8" d="M159 473C129 473 31 408 2 389L2 372L16 372C32 384 57 401 78 401C136 401 129 251 129 211C129 140 125 64 123 -7L133 -7C151 0 171 5 191 8C258 109 472 304 474 412C474 435 463 452 448 468C425 459 398 448 376 437L376 426C441 336 311 178 199 76L188 76L188 287C188 462 182 473 159 473Z" style="transform:matrix(.0119,0,0,-.0119,0,0)"/></g></g></g><g style="transform:matrix(1,0,0,1,116.29232788085938,78.07160949707031)"><path fill="#000" stroke="#000" stroke-width="8" d="M788 13L772 -310L62 -310L420 133L66 620L754 620L768 346L732 346C718 428 694 486 662 522C626 559 572 578 498 578L246 578L524 194L214 -205L512 -205C592 -205 648 -190 680 -162C714 -132 734 -74 746 13Z" style="transform:matrix(.0255,0,0,-.0255,0,0)"/></g></g><g style="transform:matrix(1,0,0,1,140.52191162109375,81.14930725097656)"><path fill="#000" stroke="#000" stroke-width="8" style="transform:matrix(.017,0,0,-.017,0,0)"/></g><g><g><g><g><g><g><g style="transform:matrix(1,0,0,1,163.66644287109375,67.16276550292969)"><path fill="#000" stroke="#000" stroke-width="8" d="M483 722L471 733C419 707 383 698 311 691L307 670L355 670C379 670 389 663 389 646C389 638 388 629 387 622L359 468C329 477 302 482 277 482C208 482 114 410 68 323C37 265 17 170 17 86C17 21 32 -11 61 -11C88 -11 125 6 159 33C213 77 246 116 313 217L290 126C279 82 274 50 274 24C274 3 283 -9 300 -9C317 -9 341 3 375 28L456 88L446 107L402 76C388 66 372 59 363 59C355 59 349 68 349 82C349 90 350 99 357 128ZM114 59C98 59 89 73 89 98C89 224 135 380 184 418C197 428 216 433 243 433C287 433 316 427 349 410L337 351C300 171 159 59 114 59Z" style="transform:matrix(.017,0,0,-.017,0,0)"/></g><g><g><g><g style="transform:matrix(1,0,0,1,172.65081787109375,70.1573699951172)"><path fill="#000" stroke="#000" stroke-width="8" d="M342 330L365 330C373 395 380 432 389 458C365 473 330 482 293 482C248 483 175 463 118 400C64 352 25 241 25 136C25 40 67 -11 147 -11C201 -11 249 9 304 54L354 95L346 115L331 105C259 57 221 40 186 40C130 40 101 80 101 159C101 267 136 371 185 409C206 425 230 433 261 433C306 433 342 414 342 390Z" style="transform:matrix(.0119,0,0,-.0119,0,0)"/></g></g></g></g></g></g><g><g><g style="transform:matrix(1,0,0,1,163.449462890625,94.28950500488281)"><path fill="#000" stroke="#000" stroke-width="8" d="M483 722L471 733C419 707 383 698 311 691L307 670L355 670C379 670 389 663 389 646C389 638 388 629 387 622L359 468C329 477 302 482 277 482C208 482 114 410 68 323C37 265 17 170 17 86C17 21 32 -11 61 -11C88 -11 125 6 159 33C213 77 246 116 313 217L290 126C279 82 274 50 274 24C274 3 283 -9 300 -9C317 -9 341 3 375 28L456 88L446 107L402 76C388 66 372 59 363 59C355 59 349 68 349 82C349 90 350 99 357 128ZM114 59C98 59 89 73 89 98C89 224 135 380 184 418C197 428 216 433 243 433C287 433 316 427 349 410L337 351C300 171 159 59 114 59Z" style="transform:matrix(.017,0,0,-.017,0,0)"/></g><g><g><g><g style="transform:matrix(1,0,0,1,172.433837890625,97.28410949707032)"><path fill="#000" stroke="#000" stroke-width="8" d="M271 204L242 77C238 60 236 42 236 26C236 4 245 -9 260 -9C283 -9 324 17 406 85L399 106C375 86 346 59 324 59C315 59 309 68 309 82C309 87 309 90 310 93L402 472L392 481L359 463C318 478 301 482 274 482C246 482 226 477 199 464C137 433 104 403 79 354C35 265 4 145 4 67C4 23 19 -11 38 -11C75 -11 155 41 271 204ZM319 414C297 305 278 253 244 201C187 117 126 59 94 59C82 59 76 72 76 99C76 163 104 280 139 360C163 415 186 433 234 433C257 433 275 429 319 414Z" style="transform:matrix(.0119,0,0,-.0119,0,0)"/></g></g></g></g></g></g><line style="fill:none;stroke-width:.998264px;stroke:#000" x1="163.439" x2="178.749" y1="76.573" y2="76.573"/></g></g></g><svg style="overflow:visible" width="35.71" height="16.992" x="144.754" y="48.166"><polygon points=".351 38.996 4.788 36.624 9.033 45.625 16.363 0 35.71 0 35.71 1.054 17.329 1.054 9.181 51.296 3.097 38.557 .637 39.479" style="fill:#000;stroke-width:1px;stroke:none"/></svg></g><g><svg style="overflow:visible" width="7.65" height="26.997" x="181.993" y="63.151"><path d="M 5.98 1.70 l -0.10 -0.10 q -1.09 0.03 -2.16 0.03 q -1.02 0.00 -2.14 -0.03 l -0.15 0.22 q 0.15 0.58 0.15 3.15 v 0.85 h 1.43 v -0.85 q 0.00 -1.31 0.07 -2.14 q 0.05 -0.60 1.19 -0.60 h 1.65 l 0.07 -0.09 v -0.44 z M 1.58 5.63 v 15.74 h 1.43 v -15.74 z" style="fill:#000;stroke-width:1px;stroke:none"/><path d="M 5.98 25.30 l -0.10 0.10 q -1.09 -0.03 -2.16 -0.03 q -1.02 0.00 -2.14 0.03 l -0.15 -0.22 q 0.15 -0.58 0.15 -3.15 v -0.85 h 1.43 v 0.85 q 0.00 1.31 0.07 2.14 q 0.05 0.60 1.19 0.60 h 1.65 l 0.07 0.09 v 0.44 z" style="fill:#000;stroke-width:1px;stroke:none"/></svg></g><g style="transform:matrix(1,0,0,1,189.64300537109375,81.14930725097656)"><path fill="#000" stroke="#000" stroke-width="8" d="M543 227C543 337 459 353 377 365C434 385 459 397 490 425C536 464 559 511 559 562C559 644 501 692 401 692C399 692 389 692 374 691L311 690C299 689 263 689 251 689C232 689 201 690 152 691L100 692L97 664L150 662C174 661 185 653 185 635C185 621 181 589 176 559L89 55C85 37 73 30 31 23L26 -3L63 -2C90 0 105 0 117 0C128 0 154 -1 180 -2L217 -3L237 -4C256 -5 269 -6 277 -6C392 -6 543 87 543 227ZM166 41L217 340L302 340C405 340 455 298 455 211C455 108 382 34 282 34C228 34 207 38 166 41ZM352 655C433 655 473 619 473 544C473 439 399 376 275 376L223 376L272 650C288 650 329 655 352 655Z" style="transform:matrix(.017,0,0,-.017,0,0)"/></g><g><g><g><g style="transform:matrix(1,0,0,1,200.98199462890625,74.69296875)"><path fill="#000" stroke="#000" stroke-width="8" d="M271 204L242 77C238 60 236 42 236 26C236 4 245 -9 260 -9C283 -9 324 17 406 85L399 106C375 86 346 59 324 59C315 59 309 68 309 82C309 87 309 90 310 93L402 472L392 481L359 463C318 478 301 482 274 482C246 482 226 477 199 464C137 433 104 403 79 354C35 265 4 145 4 67C4 23 19 -11 38 -11C75 -11 155 41 271 204ZM319 414C297 305 278 253 244 201C187 117 126 59 94 59C82 59 76 72 76 99C76 163 104 280 139 360C163 415 186 433 234 433C257 433 275 429 319 414ZM678 722L666 733C614 707 578 698 506 691L502 670L550 670C574 670 584 663 584 646C584 639 583 628 582 622L481 71C480 68 480 64 480 61C480 22 528 -11 583 -11C620 -11 671 8 714 39C810 107 876 244 876 376C876 414 867 453 855 468C848 477 835 482 820 482C796 482 766 474 738 460C687 433 654 403 592 324ZM765 424C791 424 804 401 804 352C804 288 783 202 753 137C720 68 680 36 626 36C580 36 555 59 555 101C555 135 570 276 651 361C684 395 736 424 765 424Z" style="transform:matrix(.0119,0,0,-.0119,0,0)"/></g></g></g><g><g><g style="transform:matrix(1,0,0,1,200.51544189453125,84.79497375488282)"><path fill="#000" stroke="#000" stroke-width="8" d="M342 330L365 330C373 395 380 432 389 458C365 473 330 482 293 482C248 483 175 463 118 400C64 352 25 241 25 136C25 40 67 -11 147 -11C201 -11 249 9 304 54L354 95L346 115L331 105C259 57 221 40 186 40C130 40 101 80 101 159C101 267 136 371 185 409C206 425 230 433 261 433C306 433 342 414 342 390Z" style="transform:matrix(.0119,0,0,-.0119,0,0)"/></g></g></g></g><g><svg style="overflow:visible" width="7.65" height="26.997" x="212.777" y="63.151"><path d="M 1.57 1.70 l 0.10 -0.10 q 1.09 0.03 2.16 0.03 q 1.02 0.00 2.14 -0.03 l 0.15 0.22 q -0.15 0.58 -0.15 3.15 v 0.85 h -1.43 v -0.85 q 0.00 -1.31 -0.07 -2.14 q -0.05 -0.60 -1.19 -0.60 h -1.65 l -0.07 -0.09 v -0.44 z M 5.97 5.63 v 15.74 h -1.43 v -15.74 z" style="fill:#000;stroke-width:1px;stroke:none"/><path d="M 1.57 25.30 l 0.10 0.10 q 1.09 -0.03 2.16 -0.03 q 1.02 0.00 2.14 0.03 l 0.15 -0.22 q -0.15 -0.58 -0.15 -3.15 v -0.85 h -1.43 v 0.85 q 0.00 1.31 -0.07 2.14 q -0.05 0.60 -1.19 0.60 h -1.65 l -0.07 0.09 v 0.44 z" style="fill:#000;stroke-width:1px;stroke:none"/></svg></g><g><g><g><g style="transform:matrix(1,0,0,1,220.383056640625,69.59314575195313)"><path fill="#000" stroke="#000" stroke-width="8" d="M159 473C129 473 31 408 2 389L2 372L16 372C32 384 57 401 78 401C136 401 129 251 129 211C129 140 125 64 123 -7L133 -7C151 0 171 5 191 8C258 109 472 304 474 412C474 435 463 452 448 468C425 459 398 448 376 437L376 426C441 336 311 178 199 76L188 76L188 287C188 462 182 473 159 473Z" style="transform:matrix(.0119,0,0,-.0119,0,0)"/></g></g></g><g><g><g style="transform:matrix(1,0,0,1,219.91644287109375,90.02498474121094)"><path fill="#000" stroke="#000" stroke-width="8" d="M409 -15C458 -15 530 43 565 74L565 81C562 86 558 90 553 92C531 76 472 25 461 77C461 151 506 393 533 463L533 473C511 465 488 459 465 456L455 445C453 381 421 203 395 146C372 97 311 42 254 42C199 42 184 90 185 137C188 248 238 356 241 467C213 462 187 457 161 453C179 227 9 -91 53 -286C76 -285 109 -281 131 -273L131 -261C81 -173 121 -38 138 36L138 35C204 -77 344 37 395 104L395 101C387 65 354 -15 409 -15Z" style="transform:matrix(.0119,0,0,-.0119,0,0)"/></g></g></g></g></g></g><g><g><text x="332.156" y="70.193" style="white-space:pre;stroke:none;fill:#000;font-size:15px;font-family:Arial,Helvetica,sans-serif;font-weight:400;font-style:normal;dominant-baseline:text-before-edge;text-decoration:none solid #000">with</text></g></g><g><g><g><svg style="overflow:visible" width="7.65" height="26.997" x="371.837" y="65.148"><path d="M 5.98 1.70 l -0.10 -0.10 q -1.09 0.03 -2.16 0.03 q -1.02 0.00 -2.14 -0.03 l -0.15 0.22 q 0.15 0.58 0.15 3.15 v 0.85 h 1.43 v -0.85 q 0.00 -1.31 0.07 -2.14 q 0.05 -0.60 1.19 -0.60 h 1.65 l 0.07 -0.09 v -0.44 z M 1.58 5.63 v 15.74 h 1.43 v -15.74 z" style="fill:#000;stroke-width:1px;stroke:none"/><path d="M 5.98 25.30 l -0.10 0.10 q -1.09 -0.03 -2.16 -0.03 q -1.02 0.00 -2.14 0.03 l -0.15 -0.22 q 0.15 -0.58 0.15 -3.15 v -0.85 h 1.43 v 0.85 q 0.00 1.31 0.07 2.14 q 0.05 0.60 1.19 0.60 h 1.65 l 0.07 0.09 v 0.44 z" style="fill:#000;stroke-width:1px;stroke:none"/></svg></g><g style="transform:matrix(1,0,0,1,379.48675537109375,83.14582824707031)"><path fill="#000" stroke="#000" stroke-width="8" d="M543 227C543 337 459 353 377 365C434 385 459 397 490 425C536 464 559 511 559 562C559 644 501 692 401 692C399 692 389 692 374 691L311 690C299 689 263 689 251 689C232 689 201 690 152 691L100 692L97 664L150 662C174 661 185 653 185 635C185 621 181 589 176 559L89 55C85 37 73 30 31 23L26 -3L63 -2C90 0 105 0 117 0C128 0 154 -1 180 -2L217 -3L237 -4C256 -5 269 -6 277 -6C392 -6 543 87 543 227ZM166 41L217 340L302 340C405 340 455 298 455 211C455 108 382 34 282 34C228 34 207 38 166 41ZM352 655C433 655 473 619 473 544C473 439 399 376 275 376L223 376L272 650C288 650 329 655 352 655Z" style="transform:matrix(.017,0,0,-.017,0,0)"/></g><g><g><g><g style="transform:matrix(1,0,0,1,390.82574462890625,76.68948974609376)"><path fill="#000" stroke="#000" stroke-width="8" d="M271 204L242 77C238 60 236 42 236 26C236 4 245 -9 260 -9C283 -9 324 17 406 85L399 106C375 86 346 59 324 59C315 59 309 68 309 82C309 87 309 90 310 93L402 472L392 481L359 463C318 478 301 482 274 482C246 482 226 477 199 464C137 433 104 403 79 354C35 265 4 145 4 67C4 23 19 -11 38 -11C75 -11 155 41 271 204ZM319 414C297 305 278 253 244 201C187 117 126 59 94 59C82 59 76 72 76 99C76 163 104 280 139 360C163 415 186 433 234 433C257 433 275 429 319 414ZM678 722L666 733C614 707 578 698 506 691L502 670L550 670C574 670 584 663 584 646C584 639 583 628 582 622L481 71C480 68 480 64 480 61C480 22 528 -11 583 -11C620 -11 671 8 714 39C810 107 876 244 876 376C876 414 867 453 855 468C848 477 835 482 820 482C796 482 766 474 738 460C687 433 654 403 592 324ZM765 424C791 424 804 401 804 352C804 288 783 202 753 137C720 68 680 36 626 36C580 36 555 59 555 101C555 135 570 276 651 361C684 395 736 424 765 424Z" style="transform:matrix(.0119,0,0,-.0119,0,0)"/></g></g></g><g><g><g style="transform:matrix(1,0,0,1,390.359130859375,86.79149475097657)"><path fill="#000" stroke="#000" stroke-width="8" d="M342 330L365 330C373 395 380 432 389 458C365 473 330 482 293 482C248 483 175 463 118 400C64 352 25 241 25 136C25 40 67 -11 147 -11C201 -11 249 9 304 54L354 95L346 115L331 105C259 57 221 40 186 40C130 40 101 80 101 159C101 267 136 371 185 409C206 425 230 433 261 433C306 433 342 414 342 390Z" style="transform:matrix(.0119,0,0,-.0119,0,0)"/></g></g></g></g><g><svg style="overflow:visible" width="7.65" height="26.997" x="402.62" y="65.148"><path d="M 1.57 1.70 l 0.10 -0.10 q 1.09 0.03 2.16 0.03 q 1.02 0.00 2.14 -0.03 l 0.15 0.22 q -0.15 0.58 -0.15 3.15 v 0.85 h -1.43 v -0.85 q 0.00 -1.31 -0.07 -2.14 q -0.05 -0.60 -1.19 -0.60 h -1.65 l -0.07 -0.09 v -0.44 z M 5.97 5.63 v 15.74 h -1.43 v -15.74 z" style="fill:#000;stroke-width:1px;stroke:none"/><path d="M 1.57 25.30 l 0.10 0.10 q 1.09 -0.03 2.16 -0.03 q 1.02 0.00 2.14 0.03 l 0.15 -0.22 q -0.15 -0.58 -0.15 -3.15 v -0.85 h -1.43 v 0.85 q 0.00 1.31 -0.07 2.14 q -0.05 0.60 -1.19 0.60 h -1.65 l -0.07 0.09 v 0.44 z" style="fill:#000;stroke-width:1px;stroke:none"/></svg></g><g><g><g><g style="transform:matrix(1,0,0,1,410.226806640625,71.58966674804688)"><path fill="#000" stroke="#000" stroke-width="8" d="M159 473C129 473 31 408 2 389L2 372L16 372C32 384 57 401 78 401C136 401 129 251 129 211C129 140 125 64 123 -7L133 -7C151 0 171 5 191 8C258 109 472 304 474 412C474 435 463 452 448 468C425 459 398 448 376 437L376 426C441 336 311 178 199 76L188 76L188 287C188 462 182 473 159 473Z" style="transform:matrix(.0119,0,0,-.0119,0,0)"/></g></g></g><g><g><g style="transform:matrix(1,0,0,1,409.76019287109375,92.02153625488282)"><path fill="#000" stroke="#000" stroke-width="8" d="M409 -15C458 -15 530 43 565 74L565 81C562 86 558 90 553 92C531 76 472 25 461 77C461 151 506 393 533 463L533 473C511 465 488 459 465 456L455 445C453 381 421 203 395 146C372 97 311 42 254 42C199 42 184 90 185 137C188 248 238 356 241 467C213 462 187 457 161 453C179 227 9 -91 53 -286C76 -285 109 -281 131 -273L131 -261C81 -173 121 -38 138 36L138 35C204 -77 344 37 395 104L395 101C387 65 354 -15 409 -15Z" style="transform:matrix(.0119,0,0,-.0119,0,0)"/></g></g></g></g><g style="transform:matrix(1,0,0,1,418.039306640625,83.14582824707031)"><path fill="#000" stroke="#000" stroke-width="8" style="transform:matrix(.017,0,0,-.017,0,0)"/></g><g style="transform:matrix(1,0,0,1,427.13214111328125,83.14582824707031)"><path fill="#000" stroke="#000" stroke-width="8" d="M604 347L604 406L65 406L65 347ZM604 134L604 193L65 193L65 134Z" style="transform:matrix(.017,0,0,-.017,0,0)"/></g><g style="transform:matrix(1,0,0,1,443.34307861328125,83.14582824707031)"><path fill="#000" stroke="#000" stroke-width="8" style="transform:matrix(.017,0,0,-.017,0,0)"/></g><g><g><g><g><g><g><g style="transform:matrix(1,0,0,1,466.29229736328125,69.15928649902344)"><path fill="#000" stroke="#000" stroke-width="8" d="M483 722L471 733C419 707 383 698 311 691L307 670L355 670C379 670 389 663 389 646C389 638 388 629 387 622L359 468C329 477 302 482 277 482C208 482 114 410 68 323C37 265 17 170 17 86C17 21 32 -11 61 -11C88 -11 125 6 159 33C213 77 246 116 313 217L290 126C279 82 274 50 274 24C274 3 283 -9 300 -9C317 -9 341 3 375 28L456 88L446 107L402 76C388 66 372 59 363 59C355 59 349 68 349 82C349 90 350 99 357 128ZM114 59C98 59 89 73 89 98C89 224 135 380 184 418C197 428 216 433 243 433C287 433 316 427 349 410L337 351C300 171 159 59 114 59Z" style="transform:matrix(.017,0,0,-.017,0,0)"/></g><g><g><g><g style="transform:matrix(1,0,0,1,475.27667236328125,72.15390625)"><path fill="#000" stroke="#000" stroke-width="8" d="M271 204L242 77C238 60 236 42 236 26C236 4 245 -9 260 -9C283 -9 324 17 406 85L399 106C375 86 346 59 324 59C315 59 309 68 309 82C309 87 309 90 310 93L402 472L392 481L359 463C318 478 301 482 274 482C246 482 226 477 199 464C137 433 104 403 79 354C35 265 4 145 4 67C4 23 19 -11 38 -11C75 -11 155 41 271 204ZM319 414C297 305 278 253 244 201C187 117 126 59 94 59C82 59 76 72 76 99C76 163 104 280 139 360C163 415 186 433 234 433C257 433 275 429 319 414Z" style="transform:matrix(.0119,0,0,-.0119,0,0)"/></g></g></g></g><g style="transform:matrix(1,0,0,1,481.570068359375,69.15928649902344)"><path fill="#000" stroke="#000" stroke-width="8" d="M483 722L471 733C419 707 383 698 311 691L307 670L355 670C379 670 389 663 389 646C389 638 388 629 387 622L359 468C329 477 302 482 277 482C208 482 114 410 68 323C37 265 17 170 17 86C17 21 32 -11 61 -11C88 -11 125 6 159 33C213 77 246 116 313 217L290 126C279 82 274 50 274 24C274 3 283 -9 300 -9C317 -9 341 3 375 28L456 88L446 107L402 76C388 66 372 59 363 59C355 59 349 68 349 82C349 90 350 99 357 128ZM114 59C98 59 89 73 89 98C89 224 135 380 184 418C197 428 216 433 243 433C287 433 316 427 349 410L337 351C300 171 159 59 114 59Z" style="transform:matrix(.017,0,0,-.017,0,0)"/></g><g><g><g><g style="transform:matrix(1,0,0,1,490.554443359375,72.15390625)"><path fill="#000" stroke="#000" stroke-width="8" d="M235 722L223 733C171 707 135 698 63 691L59 670L107 670C131 670 141 663 141 646C141 639 140 628 139 622L38 71C37 68 37 64 37 61C37 22 85 -11 140 -11C177 -11 228 8 271 39C367 107 433 244 433 376C433 414 424 453 412 468C405 477 392 482 377 482C353 482 323 474 295 460C244 433 211 403 149 324ZM322 424C348 424 361 401 361 352C361 288 340 202 310 137C277 68 237 36 183 36C137 36 112 59 112 101C112 135 127 276 208 361C241 395 293 424 322 424Z" style="transform:matrix(.0119,0,0,-.0119,0,0)"/></g></g></g></g></g></g><g><g><g style="transform:matrix(1,0,0,1,474.2567138671875,96.28602600097656)"><path fill="#000" stroke="#000" stroke-width="8" d="M483 722L471 733C419 707 383 698 311 691L307 670L355 670C379 670 389 663 389 646C389 638 388 629 387 622L359 468C329 477 302 482 277 482C208 482 114 410 68 323C37 265 17 170 17 86C17 21 32 -11 61 -11C88 -11 125 6 159 33C213 77 246 116 313 217L290 126C279 82 274 50 274 24C274 3 283 -9 300 -9C317 -9 341 3 375 28L456 88L446 107L402 76C388 66 372 59 363 59C355 59 349 68 349 82C349 90 350 99 357 128ZM114 59C98 59 89 73 89 98C89 224 135 380 184 418C197 428 216 433 243 433C287 433 316 427 349 410L337 351C300 171 159 59 114 59Z" style="transform:matrix(.017,0,0,-.017,0,0)"/></g><g><g><g><g style="transform:matrix(1,0,0,1,483.2410888671875,99.28063049316407)"><path fill="#000" stroke="#000" stroke-width="8" d="M342 330L365 330C373 395 380 432 389 458C365 473 330 482 293 482C248 483 175 463 118 400C64 352 25 241 25 136C25 40 67 -11 147 -11C201 -11 249 9 304 54L354 95L346 115L331 105C259 57 221 40 186 40C130 40 101 80 101 159C101 267 136 371 185 409C206 425 230 433 261 433C306 433 342 414 342 390Z" style="transform:matrix(.0119,0,0,-.0119,0,0)"/></g></g></g></g></g></g><line style="fill:none;stroke-width:.998264px;stroke:#000" x1="466.26" x2="497.108" y1="78.57" y2="78.57"/></g></g></g><svg style="overflow:visible" width="51.248" height="16.992" x="447.575" y="50.163"><polygon points=".351 38.996 4.788 36.624 9.033 45.625 16.363 0 51.248 0 51.248 1.054 17.329 1.054 9.181 51.296 3.097 38.557 .637 39.479" style="fill:#000;stroke-width:1px;stroke:none"/></svg></g><g><svg style="overflow:visible" width="7.65" height="29.991" x="500.353" y="62.153"><path d="M 5.98 1.70 l -0.10 -0.10 q -1.09 0.03 -2.16 0.03 q -1.02 0.00 -2.14 -0.03 l -0.15 0.22 q 0.15 0.58 0.15 3.15 v 0.85 h 1.43 v -0.85 q 0.00 -1.31 0.07 -2.14 q 0.05 -0.60 1.19 -0.60 h 1.65 l 0.07 -0.09 v -0.44 z M 1.58 5.63 v 18.74 h 1.43 v -18.74 z" style="fill:#000;stroke-width:1px;stroke:none"/><path d="M 5.98 28.29 l -0.10 0.10 q -1.09 -0.03 -2.16 -0.03 q -1.02 0.00 -2.14 0.03 l -0.15 -0.22 q 0.15 -0.58 0.15 -3.15 v -0.85 h 1.43 v 0.85 q 0.00 1.31 0.07 2.14 q 0.05 0.60 1.19 0.60 h 1.65 l 0.07 0.09 v 0.44 z" style="fill:#000;stroke-width:1px;stroke:none"/></svg></g><g style="transform:matrix(1,0,0,1,508.00238037109375,83.14582824707031)"><path fill="#000" stroke="#000" stroke-width="8" d="M286 646L392 650C454 650 494 641 495 626L503 537L527 537C530 600 537 651 548 689C526 691 498 692 481 692L440 691L275 689L246 689C221 689 181 690 143 691L94 692L91 664L147 662C171 661 182 652 182 635C182 621 178 589 173 559L98 125C81 33 81 32 40 28L4 25L0 -3L34 -2C74 -1 106 0 127 0C145 0 174 -1 213 -2L265 -3L268 25L204 28C177 29 168 37 168 57C168 63 169 74 170 78L206 301L323 301C350 301 381 300 429 298L455 297L474 342L470 349C389 345 329 343 251 343L214 343L260 614C263 630 264 635 269 646Z" style="transform:matrix(.017,0,0,-.017,0,0)"/></g><g><g><g><g style="transform:matrix(1,0,0,1,518.408203125,74.69296875)"><path fill="#000" stroke="#000" stroke-width="8" d="M271 204L242 77C238 60 236 42 236 26C236 4 245 -9 260 -9C283 -9 324 17 406 85L399 106C375 86 346 59 324 59C315 59 309 68 309 82C309 87 309 90 310 93L402 472L392 481L359 463C318 478 301 482 274 482C246 482 226 477 199 464C137 433 104 403 79 354C35 265 4 145 4 67C4 23 19 -11 38 -11C75 -11 155 41 271 204ZM319 414C297 305 278 253 244 201C187 117 126 59 94 59C82 59 76 72 76 99C76 163 104 280 139 360C163 415 186 433 234 433C257 433 275 429 319 414ZM678 722L666 733C614 707 578 698 506 691L502 670L550 670C574 670 584 663 584 646C584 639 583 628 582 622L481 71C480 68 480 64 480 61C480 22 528 -11 583 -11C620 -11 671 8 714 39C810 107 876 244 876 376C876 414 867 453 855 468C848 477 835 482 820 482C796 482 766 474 738 460C687 433 654 403 592 324ZM765 424C791 424 804 401 804 352C804 288 783 202 753 137C720 68 680 36 626 36C580 36 555 59 555 101C555 135 570 276 651 361C684 395 736 424 765 424Z" style="transform:matrix(.0119,0,0,-.0119,0,0)"/></g><g><g><g><g style="transform:matrix(1,0,0,1,529.1720581054688,74.69296875)"><path fill="#000" stroke="#000" stroke-width="8" d="M235 722L223 733C171 707 135 698 63 691L59 670L107 670C131 670 141 663 141 646C141 639 140 628 139 622L38 71C37 68 37 64 37 61C37 22 85 -11 140 -11C177 -11 228 8 271 39C367 107 433 244 433 376C433 414 424 453 412 468C405 477 392 482 377 482C353 482 323 474 295 460C244 433 211 403 149 324ZM322 424C348 424 361 401 361 352C361 288 340 202 310 137C277 68 237 36 183 36C137 36 112 59 112 101C112 135 127 276 208 361C241 395 293 424 322 424Z" style="transform:matrix(.0119,0,0,-.0119,0,0)"/></g></g></g><svg style="overflow:hidden" width="5.501" height="2.995" x="529.172" y="60.796"><svg style="overflow:hidden" width="11.903" height="13.889" x="0" y="0"><g style="transform:matrix(1,0,0,1,0,11.9)"><path fill="#000" stroke="#000" stroke-width="8" d="M-877 790L1877 790L1877 850L-877 850Z" style="transform:matrix(.0119,0,0,-.0119,0,0)"/></g></svg></svg></g></g></g><g><g><g style="transform:matrix(1,0,0,1,517.9415893554688,86.79149475097657)"><path fill="#000" stroke="#000" stroke-width="8" d="M271 204L242 77C238 60 236 42 236 26C236 4 245 -9 260 -9C283 -9 324 17 406 85L399 106C375 86 346 59 324 59C315 59 309 68 309 82C309 87 309 90 310 93L402 472L392 481L359 463C318 478 301 482 274 482C246 482 226 477 199 464C137 433 104 403 79 354C35 265 4 145 4 67C4 23 19 -11 38 -11C75 -11 155 41 271 204ZM319 414C297 305 278 253 244 201C187 117 126 59 94 59C82 59 76 72 76 99C76 163 104 280 139 360C163 415 186 433 234 433C257 433 275 429 319 414Z" style="transform:matrix(.0119,0,0,-.0119,0,0)"/></g></g></g></g><g><svg style="overflow:visible" width="7.65" height="29.991" x="535.704" y="62.153"><path d="M 1.57 1.70 l 0.10 -0.10 q 1.09 0.03 2.16 0.03 q 1.02 0.00 2.14 -0.03 l 0.15 0.22 q -0.15 0.58 -0.15 3.15 v 0.85 h -1.43 v -0.85 q 0.00 -1.31 -0.07 -2.14 q -0.05 -0.60 -1.19 -0.60 h -1.65 l -0.07 -0.09 v -0.44 z M 5.97 5.63 v 18.74 h -1.43 v -18.74 z" style="fill:#000;stroke-width:1px;stroke:none"/><path d="M 1.57 28.29 l 0.10 0.10 q 1.09 -0.03 2.16 -0.03 q 1.02 0.00 2.14 0.03 l 0.15 -0.22 q -0.15 -0.58 -0.15 -3.15 v -0.85 h -1.43 v 0.85 q 0.00 1.31 -0.07 2.14 q -0.05 0.60 -1.19 0.60 h -1.65 l -0.07 0.09 v 0.44 z" style="fill:#000;stroke-width:1px;stroke:none"/></svg></g><g><g><g><g style="transform:matrix(1,0,0,1,543.310546875,67.66171875)"><path fill="#000" stroke="#000" stroke-width="8" d="M146 266C146 526 243 632 301 700L282 726C225 675 60 542 60 266C60 159 85 58 133 -32C168 -99 200 -138 282 -215L301 -194C255 -137 146 -15 146 266Z" style="transform:matrix(.0119,0,0,-.0119,0,0)"/></g><g style="transform:matrix(1,0,0,1,547.2601928710938,67.66171875)"><path fill="#000" stroke="#000" stroke-width="8" d="M418 -3L418 27L366 30C311 33 301 44 301 96L301 700L60 598L67 548L217 614L217 96C217 44 206 33 152 30L96 27L96 -3C250 0 250 0 261 0C292 0 402 -3 418 -3ZM917 -3L917 27L865 30C810 33 800 44 800 96L800 700L559 598L566 548L716 614L716 96C716 44 705 33 651 30L595 27L595 -3C749 0 749 0 760 0C791 0 901 -3 917 -3ZM1416 -3L1416 27L1364 30C1309 33 1299 44 1299 96L1299 700L1058 598L1065 548L1215 614L1215 96C1215 44 1204 33 1150 30L1094 27L1094 -3C1248 0 1248 0 1259 0C1290 0 1400 -3 1416 -3Z" style="transform:matrix(.0119,0,0,-.0119,0,0)"/></g><g style="transform:matrix(1,0,0,1,565.066162109375,67.66171875)"><path fill="#000" stroke="#000" stroke-width="8" d="M51 726L32 700C87 636 187 526 187 266C187 -10 83 -131 32 -194L51 -215C104 -165 273 -23 273 265C273 542 108 675 51 726Z" style="transform:matrix(.0119,0,0,-.0119,0,0)"/></g></g></g><g><g><g style="transform:matrix(1,0,0,1,542.8439331054688,92.02153625488282)"><path fill="#000" stroke="#000" stroke-width="8" d="M146 266C146 526 243 632 301 700L282 726C225 675 60 542 60 266C60 159 85 58 133 -32C168 -99 200 -138 282 -215L301 -194C255 -137 146 -15 146 266Z" style="transform:matrix(.0119,0,0,-.0119,0,0)"/></g><g style="transform:matrix(1,0,0,1,546.7936401367188,92.02153625488282)"><path fill="#000" stroke="#000" stroke-width="8" d="M342 330L365 330C373 395 380 432 389 458C365 473 330 482 293 482C248 483 175 463 118 400C64 352 25 241 25 136C25 40 67 -11 147 -11C201 -11 249 9 304 54L354 95L346 115L331 105C259 57 221 40 186 40C130 40 101 80 101 159C101 267 136 371 185 409C206 425 230 433 261 433C306 433 342 414 342 390ZM815 -15C864 -15 936 43 971 74L971 81C968 86 964 90 959 92C937 76 878 25 867 77C867 151 912 393 939 463L939 473C917 465 894 459 871 456L861 445C859 381 827 203 801 146C778 97 717 42 660 42C605 42 590 90 591 137C594 248 644 356 647 467C619 462 593 457 567 453C585 227 415 -91 459 -286C482 -285 515 -281 537 -273L537 -261C487 -173 527 -38 544 36L544 35C610 -77 750 37 801 104L801 101C793 65 760 -15 815 -15ZM1175 473C1145 473 1047 408 1018 389L1018 372L1032 372C1048 384 1073 401 1094 401C1152 401 1145 251 1145 211C1145 140 1141 64 1139 -7L1149 -7C1167 0 1187 5 1207 8C1274 109 1488 304 1490 412C1490 435 1479 452 1464 468C1441 459 1414 448 1392 437L1392 426C1457 336 1327 178 1215 76L1204 76L1204 287C1204 462 1198 473 1175 473Z" style="transform:matrix(.0119,0,0,-.0119,0,0)"/></g><g style="transform:matrix(1,0,0,1,564.7840576171875,92.02153625488282)"><path fill="#000" stroke="#000" stroke-width="8" d="M51 726L32 700C87 636 187 526 187 266C187 -10 83 -131 32 -194L51 -215C104 -165 273 -23 273 265C273 542 108 675 51 726Z" style="transform:matrix(.0119,0,0,-.0119,0,0)"/></g></g></g></g></g></g></svg></svg>